<mxfile host="65bd71144e">
    <diagram id="xPcZIbJ9FG3-v9NHpjFC" name="Standard">
        <mxGraphModel dx="1374" dy="781" grid="0" gridSize="10" guides="1" tooltips="1" connect="1" arrows="1" fold="1" page="1" pageScale="1" pageWidth="827" pageHeight="1169" math="0" shadow="0">
            <root>
                <mxCell id="0"/>
                <mxCell id="1" parent="0"/>
                <mxCell id="2" value="Context" style="swimlane;fontStyle=1;align=center;verticalAlign=top;childLayout=stackLayout;horizontal=1;startSize=26;horizontalStack=0;resizeParent=1;resizeParentMax=0;resizeLast=0;collapsible=1;marginBottom=0;" parent="1" vertex="1">
                    <mxGeometry x="222" y="145" width="160" height="138" as="geometry"/>
                </mxCell>
                <mxCell id="3" value="- state: State" style="text;strokeColor=none;fillColor=none;align=left;verticalAlign=top;spacingLeft=4;spacingRight=4;overflow=hidden;rotatable=0;points=[[0,0.5],[1,0.5]];portConstraint=eastwest;" parent="2" vertex="1">
                    <mxGeometry y="26" width="160" height="26" as="geometry"/>
                </mxCell>
                <mxCell id="4" value="" style="line;strokeWidth=1;fillColor=none;align=left;verticalAlign=middle;spacingTop=-1;spacingLeft=3;spacingRight=3;rotatable=0;labelPosition=right;points=[];portConstraint=eastwest;" parent="2" vertex="1">
                    <mxGeometry y="52" width="160" height="8" as="geometry"/>
                </mxCell>
                <mxCell id="5" value="+ Context(initalState: State)" style="text;strokeColor=none;fillColor=none;align=left;verticalAlign=top;spacingLeft=4;spacingRight=4;overflow=hidden;rotatable=0;points=[[0,0.5],[1,0.5]];portConstraint=eastwest;" parent="2" vertex="1">
                    <mxGeometry y="60" width="160" height="26" as="geometry"/>
                </mxCell>
                <mxCell id="6" value="+ setState(s: State)" style="text;strokeColor=none;fillColor=none;align=left;verticalAlign=top;spacingLeft=4;spacingRight=4;overflow=hidden;rotatable=0;points=[[0,0.5],[1,0.5]];portConstraint=eastwest;" parent="2" vertex="1">
                    <mxGeometry y="86" width="160" height="26" as="geometry"/>
                </mxCell>
                <mxCell id="7" value="+ operation()" style="text;strokeColor=none;fillColor=none;align=left;verticalAlign=top;spacingLeft=4;spacingRight=4;overflow=hidden;rotatable=0;points=[[0,0.5],[1,0.5]];portConstraint=eastwest;" parent="2" vertex="1">
                    <mxGeometry y="112" width="160" height="26" as="geometry"/>
                </mxCell>
                <mxCell id="8" value="«interface»&#10;State" style="swimlane;fontStyle=1;align=center;verticalAlign=top;childLayout=stackLayout;horizontal=1;startSize=37;horizontalStack=0;resizeParent=1;resizeParentMax=0;resizeLast=0;collapsible=1;marginBottom=0;" parent="1" vertex="1">
                    <mxGeometry x="563" y="152.5" width="160" height="63" as="geometry"/>
                </mxCell>
                <mxCell id="11" value="+ operation()" style="text;strokeColor=none;fillColor=none;align=left;verticalAlign=top;spacingLeft=4;spacingRight=4;overflow=hidden;rotatable=0;points=[[0,0.5],[1,0.5]];portConstraint=eastwest;" parent="8" vertex="1">
                    <mxGeometry y="37" width="160" height="26" as="geometry"/>
                </mxCell>
                <mxCell id="14" style="edgeStyle=orthogonalEdgeStyle;html=1;exitX=1;exitY=0.5;exitDx=0;exitDy=0;entryX=0;entryY=0.5;entryDx=0;entryDy=0;rounded=0;endArrow=open;endFill=0;startArrow=diamondThin;startFill=0;" parent="1" source="3" target="8" edge="1">
                    <mxGeometry relative="1" as="geometry"/>
                </mxCell>
                <mxCell id="23" style="edgeStyle=orthogonalEdgeStyle;rounded=0;html=1;exitX=0.5;exitY=0;exitDx=0;exitDy=0;entryX=0.5;entryY=1;entryDx=0;entryDy=0;startArrow=none;startFill=0;endArrow=block;endFill=0;dashed=1;" parent="1" source="15" target="8" edge="1">
                    <mxGeometry relative="1" as="geometry"/>
                </mxCell>
                <mxCell id="15" value="ConcreteState" style="swimlane;fontStyle=1;align=center;verticalAlign=top;childLayout=stackLayout;horizontal=1;startSize=26;horizontalStack=0;resizeParent=1;resizeParentMax=0;resizeLast=0;collapsible=1;marginBottom=0;" parent="1" vertex="1">
                    <mxGeometry x="563" y="314" width="160" height="86" as="geometry"/>
                </mxCell>
                <mxCell id="16" value="- context" style="text;strokeColor=none;fillColor=none;align=left;verticalAlign=top;spacingLeft=4;spacingRight=4;overflow=hidden;rotatable=0;points=[[0,0.5],[1,0.5]];portConstraint=eastwest;" parent="15" vertex="1">
                    <mxGeometry y="26" width="160" height="26" as="geometry"/>
                </mxCell>
                <mxCell id="17" value="" style="line;strokeWidth=1;fillColor=none;align=left;verticalAlign=middle;spacingTop=-1;spacingLeft=3;spacingRight=3;rotatable=0;labelPosition=right;points=[];portConstraint=eastwest;" parent="15" vertex="1">
                    <mxGeometry y="52" width="160" height="8" as="geometry"/>
                </mxCell>
                <mxCell id="18" value="+ operation()" style="text;strokeColor=none;fillColor=none;align=left;verticalAlign=top;spacingLeft=4;spacingRight=4;overflow=hidden;rotatable=0;points=[[0,0.5],[1,0.5]];portConstraint=eastwest;" parent="15" vertex="1">
                    <mxGeometry y="60" width="160" height="26" as="geometry"/>
                </mxCell>
                <mxCell id="26" style="edgeStyle=orthogonalEdgeStyle;rounded=0;html=1;exitX=0.5;exitY=0;exitDx=0;exitDy=0;entryX=0.512;entryY=1.026;entryDx=0;entryDy=0;entryPerimeter=0;startArrow=none;startFill=0;endArrow=open;endFill=0;" parent="1" source="25" target="7" edge="1">
                    <mxGeometry relative="1" as="geometry"/>
                </mxCell>
                <mxCell id="27" style="edgeStyle=orthogonalEdgeStyle;rounded=0;html=1;entryX=0.496;entryY=0.998;entryDx=0;entryDy=0;entryPerimeter=0;startArrow=none;startFill=0;endArrow=open;endFill=0;dashed=1;" parent="1" source="25" target="18" edge="1">
                    <mxGeometry relative="1" as="geometry"/>
                </mxCell>
                <mxCell id="25" value="Client" style="html=1;" parent="1" vertex="1">
                    <mxGeometry x="249" y="393" width="110" height="50" as="geometry"/>
                </mxCell>
                <mxCell id="32" style="rounded=0;html=1;exitX=0;exitY=0.5;exitDx=0;exitDy=0;entryX=1;entryY=0.5;entryDx=0;entryDy=0;endArrow=open;endFill=0;" parent="1" source="16" target="7" edge="1">
                    <mxGeometry relative="1" as="geometry"/>
                </mxCell>
                <mxCell id="33" value="initState = new ConcreteState()&lt;br&gt;context = new Context(initState)&lt;br&gt;context.operation()" style="whiteSpace=wrap;html=1;rounded=1;arcSize=50;align=left;verticalAlign=middle;strokeWidth=1;autosize=1;spacing=10;treeFolding=1;treeMoving=1;newEdgeStyle={&quot;edgeStyle&quot;:&quot;entityRelationEdgeStyle&quot;,&quot;startArrow&quot;:&quot;none&quot;,&quot;endArrow&quot;:&quot;none&quot;,&quot;segment&quot;:10,&quot;curved&quot;:1};" parent="1" vertex="1">
                    <mxGeometry x="213" y="508" width="217" height="66" as="geometry"/>
                </mxCell>
                <mxCell id="34" value="" style="edgeStyle=entityRelationEdgeStyle;startArrow=none;endArrow=none;segment=10;curved=1;rounded=0;exitX=0.5;exitY=1;exitDx=0;exitDy=0;" parent="1" source="25" target="33" edge="1">
                    <mxGeometry relative="1" as="geometry">
                        <mxPoint x="239" y="568" as="sourcePoint"/>
                    </mxGeometry>
                </mxCell>
                <mxCell id="35" value="this.state = state&lt;br&gt;state.setContext(this)" style="whiteSpace=wrap;html=1;rounded=1;arcSize=50;align=left;verticalAlign=middle;strokeWidth=1;autosize=1;spacing=10;treeFolding=1;treeMoving=1;newEdgeStyle={&quot;edgeStyle&quot;:&quot;entityRelationEdgeStyle&quot;,&quot;startArrow&quot;:&quot;none&quot;,&quot;endArrow&quot;:&quot;none&quot;,&quot;segment&quot;:10,&quot;curved&quot;:1};" parent="1" vertex="1">
                    <mxGeometry x="41" y="326" width="160" height="52" as="geometry"/>
                </mxCell>
                <mxCell id="36" value="" style="edgeStyle=entityRelationEdgeStyle;startArrow=none;endArrow=none;segment=10;curved=1;rounded=0;exitX=0;exitY=0.5;exitDx=0;exitDy=0;" parent="1" source="5" target="35" edge="1">
                    <mxGeometry relative="1" as="geometry">
                        <mxPoint x="128" y="368" as="sourcePoint"/>
                    </mxGeometry>
                </mxCell>
                <mxCell id="37" value="state.operation()" style="whiteSpace=wrap;html=1;rounded=1;arcSize=50;align=center;verticalAlign=middle;strokeWidth=1;autosize=1;spacing=4;treeFolding=1;treeMoving=1;newEdgeStyle={&quot;edgeStyle&quot;:&quot;entityRelationEdgeStyle&quot;,&quot;startArrow&quot;:&quot;none&quot;,&quot;endArrow&quot;:&quot;none&quot;,&quot;segment&quot;:10,&quot;curved&quot;:1};" parent="1" vertex="1">
                    <mxGeometry x="325" y="304" width="122" height="26" as="geometry"/>
                </mxCell>
                <mxCell id="38" value="" style="edgeStyle=entityRelationEdgeStyle;startArrow=none;endArrow=none;segment=10;curved=1;rounded=0;exitX=0.583;exitY=1;exitDx=0;exitDy=0;exitPerimeter=0;" parent="1" source="7" target="37" edge="1">
                    <mxGeometry relative="1" as="geometry">
                        <mxPoint x="359" y="384" as="sourcePoint"/>
                    </mxGeometry>
                </mxCell>
                <mxCell id="39" value="state = new OtherSatet()&lt;br&gt;context.setState(state)" style="whiteSpace=wrap;html=1;rounded=1;arcSize=50;align=left;verticalAlign=middle;strokeWidth=1;autosize=1;spacing=10;treeFolding=1;treeMoving=1;newEdgeStyle={&quot;edgeStyle&quot;:&quot;entityRelationEdgeStyle&quot;,&quot;startArrow&quot;:&quot;none&quot;,&quot;endArrow&quot;:&quot;none&quot;,&quot;segment&quot;:10,&quot;curved&quot;:1};" parent="1" vertex="1">
                    <mxGeometry x="598" y="452" width="178" height="52" as="geometry"/>
                </mxCell>
                <mxCell id="40" value="" style="edgeStyle=entityRelationEdgeStyle;startArrow=none;endArrow=none;segment=10;curved=1;rounded=0;exitX=0.8;exitY=0.999;exitDx=0;exitDy=0;exitPerimeter=0;" parent="1" source="18" target="39" edge="1">
                    <mxGeometry relative="1" as="geometry">
                        <mxPoint x="617" y="496" as="sourcePoint"/>
                    </mxGeometry>
                </mxCell>
            </root>
        </mxGraphModel>
    </diagram>
    <diagram id="71t_KIO1vCOhjr0vCD3v" name="Practice">
        <mxGraphModel dx="785" dy="446" grid="0" gridSize="10" guides="1" tooltips="1" connect="1" arrows="1" fold="1" page="1" pageScale="1" pageWidth="827" pageHeight="1169" math="0" shadow="0">
            <root>
                <mxCell id="GKD8LtRDJNYYGs-lHLcW-0"/>
                <mxCell id="GKD8LtRDJNYYGs-lHLcW-1" parent="GKD8LtRDJNYYGs-lHLcW-0"/>
                <mxCell id="GKD8LtRDJNYYGs-lHLcW-14" style="edgeStyle=none;html=1;exitX=0.5;exitY=1;exitDx=0;exitDy=0;entryX=0.3;entryY=-0.01;entryDx=0;entryDy=0;entryPerimeter=0;" parent="GKD8LtRDJNYYGs-lHLcW-1" source="GKD8LtRDJNYYGs-lHLcW-3" target="GKD8LtRDJNYYGs-lHLcW-7" edge="1">
                    <mxGeometry relative="1" as="geometry"/>
                </mxCell>
                <mxCell id="GKD8LtRDJNYYGs-lHLcW-3" value="" style="ellipse;fillColor=#000000;strokeColor=none;" parent="GKD8LtRDJNYYGs-lHLcW-1" vertex="1">
                    <mxGeometry x="196" y="520" width="30" height="30" as="geometry"/>
                </mxCell>
                <mxCell id="GKD8LtRDJNYYGs-lHLcW-26" style="edgeStyle=none;html=1;exitX=0.75;exitY=1;exitDx=0;exitDy=0;entryX=0.75;entryY=0;entryDx=0;entryDy=0;" parent="GKD8LtRDJNYYGs-lHLcW-1" source="GKD8LtRDJNYYGs-lHLcW-7" target="GKD8LtRDJNYYGs-lHLcW-8" edge="1">
                    <mxGeometry relative="1" as="geometry"/>
                </mxCell>
                <mxCell id="GKD8LtRDJNYYGs-lHLcW-27" style="edgeStyle=none;html=1;exitX=1;exitY=0.25;exitDx=0;exitDy=0;entryX=0;entryY=0.25;entryDx=0;entryDy=0;" parent="GKD8LtRDJNYYGs-lHLcW-1" source="GKD8LtRDJNYYGs-lHLcW-7" target="GKD8LtRDJNYYGs-lHLcW-10" edge="1">
                    <mxGeometry relative="1" as="geometry"/>
                </mxCell>
                <mxCell id="GKD8LtRDJNYYGs-lHLcW-42" style="edgeStyle=none;html=1;exitX=0.75;exitY=0;exitDx=0;exitDy=0;entryX=0.5;entryY=1;entryDx=0;entryDy=0;" parent="GKD8LtRDJNYYGs-lHLcW-1" source="GKD8LtRDJNYYGs-lHLcW-7" target="GKD8LtRDJNYYGs-lHLcW-41" edge="1">
                    <mxGeometry relative="1" as="geometry"/>
                </mxCell>
                <mxCell id="GKD8LtRDJNYYGs-lHLcW-7" value="Safety on and unloaded" style="html=1;align=center;verticalAlign=middle;rounded=1;absoluteArcSize=1;arcSize=10;dashed=0;" parent="GKD8LtRDJNYYGs-lHLcW-1" vertex="1">
                    <mxGeometry x="169" y="574" width="140" height="40" as="geometry"/>
                </mxCell>
                <mxCell id="GKD8LtRDJNYYGs-lHLcW-24" style="edgeStyle=none;html=1;exitX=0.25;exitY=0;exitDx=0;exitDy=0;entryX=0.25;entryY=1;entryDx=0;entryDy=0;" parent="GKD8LtRDJNYYGs-lHLcW-1" source="GKD8LtRDJNYYGs-lHLcW-8" target="GKD8LtRDJNYYGs-lHLcW-7" edge="1">
                    <mxGeometry relative="1" as="geometry"/>
                </mxCell>
                <mxCell id="GKD8LtRDJNYYGs-lHLcW-28" style="edgeStyle=none;html=1;exitX=1;exitY=0.25;exitDx=0;exitDy=0;entryX=0;entryY=0.25;entryDx=0;entryDy=0;" parent="GKD8LtRDJNYYGs-lHLcW-1" source="GKD8LtRDJNYYGs-lHLcW-8" target="GKD8LtRDJNYYGs-lHLcW-9" edge="1">
                    <mxGeometry relative="1" as="geometry"/>
                </mxCell>
                <mxCell id="GKD8LtRDJNYYGs-lHLcW-8" value="Safety on but loaded" style="html=1;align=center;verticalAlign=middle;rounded=1;absoluteArcSize=1;arcSize=10;dashed=0;" parent="GKD8LtRDJNYYGs-lHLcW-1" vertex="1">
                    <mxGeometry x="169" y="703" width="140" height="40" as="geometry"/>
                </mxCell>
                <mxCell id="GKD8LtRDJNYYGs-lHLcW-29" style="edgeStyle=none;html=1;exitX=0;exitY=0.75;exitDx=0;exitDy=0;entryX=1;entryY=0.75;entryDx=0;entryDy=0;" parent="GKD8LtRDJNYYGs-lHLcW-1" source="GKD8LtRDJNYYGs-lHLcW-9" target="GKD8LtRDJNYYGs-lHLcW-8" edge="1">
                    <mxGeometry relative="1" as="geometry"/>
                </mxCell>
                <mxCell id="GKD8LtRDJNYYGs-lHLcW-31" style="edgeStyle=none;html=1;exitX=0.25;exitY=0;exitDx=0;exitDy=0;entryX=0.25;entryY=1;entryDx=0;entryDy=0;" parent="GKD8LtRDJNYYGs-lHLcW-1" source="GKD8LtRDJNYYGs-lHLcW-9" target="GKD8LtRDJNYYGs-lHLcW-10" edge="1">
                    <mxGeometry relative="1" as="geometry"/>
                </mxCell>
                <mxCell id="GKD8LtRDJNYYGs-lHLcW-37" style="edgeStyle=orthogonalEdgeStyle;html=1;exitX=0.75;exitY=1;exitDx=0;exitDy=0;" parent="GKD8LtRDJNYYGs-lHLcW-1" source="GKD8LtRDJNYYGs-lHLcW-9" edge="1">
                    <mxGeometry relative="1" as="geometry">
                        <mxPoint x="463" y="743" as="targetPoint"/>
                        <Array as="points">
                            <mxPoint x="530" y="773"/>
                            <mxPoint x="463" y="773"/>
                        </Array>
                    </mxGeometry>
                </mxCell>
                <mxCell id="GKD8LtRDJNYYGs-lHLcW-9" value="Safety off and loaded" style="html=1;align=center;verticalAlign=middle;rounded=1;absoluteArcSize=1;arcSize=10;dashed=0;" parent="GKD8LtRDJNYYGs-lHLcW-1" vertex="1">
                    <mxGeometry x="425" y="703" width="140" height="40" as="geometry"/>
                </mxCell>
                <mxCell id="GKD8LtRDJNYYGs-lHLcW-30" style="edgeStyle=none;html=1;exitX=0;exitY=0.75;exitDx=0;exitDy=0;entryX=1;entryY=0.75;entryDx=0;entryDy=0;" parent="GKD8LtRDJNYYGs-lHLcW-1" source="GKD8LtRDJNYYGs-lHLcW-10" target="GKD8LtRDJNYYGs-lHLcW-7" edge="1">
                    <mxGeometry relative="1" as="geometry"/>
                </mxCell>
                <mxCell id="GKD8LtRDJNYYGs-lHLcW-32" style="edgeStyle=none;html=1;exitX=0.75;exitY=1;exitDx=0;exitDy=0;entryX=0.75;entryY=0;entryDx=0;entryDy=0;" parent="GKD8LtRDJNYYGs-lHLcW-1" source="GKD8LtRDJNYYGs-lHLcW-10" target="GKD8LtRDJNYYGs-lHLcW-9" edge="1">
                    <mxGeometry relative="1" as="geometry"/>
                </mxCell>
                <mxCell id="GKD8LtRDJNYYGs-lHLcW-10" value="Safety off but unloaded" style="html=1;align=center;verticalAlign=middle;rounded=1;absoluteArcSize=1;arcSize=10;dashed=0;" parent="GKD8LtRDJNYYGs-lHLcW-1" vertex="1">
                    <mxGeometry x="425" y="574" width="140" height="40" as="geometry"/>
                </mxCell>
                <mxCell id="GKD8LtRDJNYYGs-lHLcW-19" value="load()" style="text;html=1;resizable=0;autosize=1;align=center;verticalAlign=middle;points=[];fillColor=none;strokeColor=none;rounded=0;" parent="GKD8LtRDJNYYGs-lHLcW-1" vertex="1">
                    <mxGeometry x="280" y="648" width="41" height="18" as="geometry"/>
                </mxCell>
                <mxCell id="GKD8LtRDJNYYGs-lHLcW-22" value="safetyOff()" style="text;html=1;resizable=0;autosize=1;align=center;verticalAlign=middle;points=[];fillColor=none;strokeColor=none;rounded=0;" parent="GKD8LtRDJNYYGs-lHLcW-1" vertex="1">
                    <mxGeometry x="334" y="561" width="66" height="18" as="geometry"/>
                </mxCell>
                <mxCell id="GKD8LtRDJNYYGs-lHLcW-25" value="unload()" style="text;html=1;resizable=0;autosize=1;align=center;verticalAlign=middle;points=[];fillColor=none;strokeColor=none;rounded=0;" parent="GKD8LtRDJNYYGs-lHLcW-1" vertex="1">
                    <mxGeometry x="142" y="648" width="54" height="18" as="geometry"/>
                </mxCell>
                <mxCell id="GKD8LtRDJNYYGs-lHLcW-33" value="load()" style="text;html=1;resizable=0;autosize=1;align=center;verticalAlign=middle;points=[];fillColor=none;strokeColor=none;rounded=0;" parent="GKD8LtRDJNYYGs-lHLcW-1" vertex="1">
                    <mxGeometry x="534" y="648" width="41" height="18" as="geometry"/>
                </mxCell>
                <mxCell id="GKD8LtRDJNYYGs-lHLcW-34" value="unload()" style="text;html=1;resizable=0;autosize=1;align=center;verticalAlign=middle;points=[];fillColor=none;strokeColor=none;rounded=0;" parent="GKD8LtRDJNYYGs-lHLcW-1" vertex="1">
                    <mxGeometry x="402" y="648" width="54" height="18" as="geometry"/>
                </mxCell>
                <mxCell id="GKD8LtRDJNYYGs-lHLcW-45" style="edgeStyle=orthogonalEdgeStyle;rounded=0;html=1;entryX=1;entryY=0.5;entryDx=0;entryDy=0;exitX=1;exitY=0.5;exitDx=0;exitDy=0;" parent="GKD8LtRDJNYYGs-lHLcW-1" source="GKD8LtRDJNYYGs-lHLcW-9" target="GKD8LtRDJNYYGs-lHLcW-10" edge="1">
                    <mxGeometry relative="1" as="geometry">
                        <mxPoint x="565" y="725" as="sourcePoint"/>
                        <Array as="points">
                            <mxPoint x="604" y="723"/>
                            <mxPoint x="604" y="594"/>
                        </Array>
                    </mxGeometry>
                </mxCell>
                <mxCell id="GKD8LtRDJNYYGs-lHLcW-39" value="shoot()" style="text;html=1;resizable=0;autosize=1;align=center;verticalAlign=middle;points=[];fillColor=none;strokeColor=none;rounded=0;" parent="GKD8LtRDJNYYGs-lHLcW-1" vertex="1">
                    <mxGeometry x="471.5" y="776" width="47" height="18" as="geometry"/>
                </mxCell>
                <mxCell id="GKD8LtRDJNYYGs-lHLcW-41" value="" style="ellipse;html=1;shape=endState;fillColor=#000000;strokeColor=#000000;" parent="GKD8LtRDJNYYGs-lHLcW-1" vertex="1">
                    <mxGeometry x="259" y="520" width="30" height="30" as="geometry"/>
                </mxCell>
                <mxCell id="GKD8LtRDJNYYGs-lHLcW-44" value="dry [ammo &amp;lt;= 0]" style="text;html=1;resizable=0;autosize=1;align=center;verticalAlign=middle;points=[];fillColor=none;strokeColor=none;rounded=0;" parent="GKD8LtRDJNYYGs-lHLcW-1" vertex="1">
                    <mxGeometry x="589" y="725" width="97" height="18" as="geometry"/>
                </mxCell>
                <mxCell id="GKD8LtRDJNYYGs-lHLcW-46" value="Gun" style="swimlane;fontStyle=1;align=center;verticalAlign=top;childLayout=stackLayout;horizontal=1;startSize=26;horizontalStack=0;resizeParent=1;resizeParentMax=0;resizeLast=0;collapsible=1;marginBottom=0;" parent="GKD8LtRDJNYYGs-lHLcW-1" vertex="1">
                    <mxGeometry x="55" y="20" width="153" height="408" as="geometry"/>
                </mxCell>
                <mxCell id="GKD8LtRDJNYYGs-lHLcW-47" value="- state: State" style="text;strokeColor=none;fillColor=none;align=left;verticalAlign=top;spacingLeft=4;spacingRight=4;overflow=hidden;rotatable=0;points=[[0,0.5],[1,0.5]];portConstraint=eastwest;" parent="GKD8LtRDJNYYGs-lHLcW-46" vertex="1">
                    <mxGeometry y="26" width="153" height="26" as="geometry"/>
                </mxCell>
                <mxCell id="GKD8LtRDJNYYGs-lHLcW-50" value="- ammo: number" style="text;strokeColor=none;fillColor=none;align=left;verticalAlign=top;spacingLeft=4;spacingRight=4;overflow=hidden;rotatable=0;points=[[0,0.5],[1,0.5]];portConstraint=eastwest;" parent="GKD8LtRDJNYYGs-lHLcW-46" vertex="1">
                    <mxGeometry y="52" width="153" height="26" as="geometry"/>
                </mxCell>
                <mxCell id="GKD8LtRDJNYYGs-lHLcW-52" value="- magSize: number" style="text;strokeColor=none;fillColor=none;align=left;verticalAlign=top;spacingLeft=4;spacingRight=4;overflow=hidden;rotatable=0;points=[[0,0.5],[1,0.5]];portConstraint=eastwest;" parent="GKD8LtRDJNYYGs-lHLcW-46" vertex="1">
                    <mxGeometry y="78" width="153" height="26" as="geometry"/>
                </mxCell>
                <mxCell id="GKD8LtRDJNYYGs-lHLcW-48" value="" style="line;strokeWidth=1;fillColor=none;align=left;verticalAlign=middle;spacingTop=-1;spacingLeft=3;spacingRight=3;rotatable=0;labelPosition=right;points=[];portConstraint=eastwest;" parent="GKD8LtRDJNYYGs-lHLcW-46" vertex="1">
                    <mxGeometry y="104" width="153" height="8" as="geometry"/>
                </mxCell>
                <mxCell id="GKD8LtRDJNYYGs-lHLcW-49" value="+ Gun(magSize: number)" style="text;strokeColor=none;fillColor=none;align=left;verticalAlign=top;spacingLeft=4;spacingRight=4;overflow=hidden;rotatable=0;points=[[0,0.5],[1,0.5]];portConstraint=eastwest;" parent="GKD8LtRDJNYYGs-lHLcW-46" vertex="1">
                    <mxGeometry y="112" width="153" height="26" as="geometry"/>
                </mxCell>
                <mxCell id="WoRqKMGYMsKeR5RRJ1yA-5" value="+ setAmmo(a: number)" style="text;strokeColor=none;fillColor=none;align=left;verticalAlign=top;spacingLeft=4;spacingRight=4;overflow=hidden;rotatable=0;points=[[0,0.5],[1,0.5]];portConstraint=eastwest;" vertex="1" parent="GKD8LtRDJNYYGs-lHLcW-46">
                    <mxGeometry y="138" width="153" height="26" as="geometry"/>
                </mxCell>
                <mxCell id="GKD8LtRDJNYYGs-lHLcW-51" value="+ getAmmo(): number" style="text;strokeColor=none;fillColor=none;align=left;verticalAlign=top;spacingLeft=4;spacingRight=4;overflow=hidden;rotatable=0;points=[[0,0.5],[1,0.5]];portConstraint=eastwest;" parent="GKD8LtRDJNYYGs-lHLcW-46" vertex="1">
                    <mxGeometry y="164" width="153" height="26" as="geometry"/>
                </mxCell>
                <mxCell id="GKD8LtRDJNYYGs-lHLcW-53" value="+ getMagSize(): number" style="text;strokeColor=none;fillColor=none;align=left;verticalAlign=top;spacingLeft=4;spacingRight=4;overflow=hidden;rotatable=0;points=[[0,0.5],[1,0.5]];portConstraint=eastwest;" parent="GKD8LtRDJNYYGs-lHLcW-46" vertex="1">
                    <mxGeometry y="190" width="153" height="26" as="geometry"/>
                </mxCell>
                <mxCell id="GKD8LtRDJNYYGs-lHLcW-112" value="+ setState(s: State)" style="text;strokeColor=none;fillColor=none;align=left;verticalAlign=top;spacingLeft=4;spacingRight=4;overflow=hidden;rotatable=0;points=[[0,0.5],[1,0.5]];portConstraint=eastwest;" parent="GKD8LtRDJNYYGs-lHLcW-46" vertex="1">
                    <mxGeometry y="216" width="153" height="26" as="geometry"/>
                </mxCell>
                <mxCell id="GKD8LtRDJNYYGs-lHLcW-111" value="+ getState(): State" style="text;strokeColor=none;fillColor=none;align=left;verticalAlign=top;spacingLeft=4;spacingRight=4;overflow=hidden;rotatable=0;points=[[0,0.5],[1,0.5]];portConstraint=eastwest;" parent="GKD8LtRDJNYYGs-lHLcW-46" vertex="1">
                    <mxGeometry y="242" width="153" height="36" as="geometry"/>
                </mxCell>
                <mxCell id="WoRqKMGYMsKeR5RRJ1yA-0" value="+ safetyOn()" style="text;strokeColor=none;fillColor=none;align=left;verticalAlign=top;spacingLeft=4;spacingRight=4;overflow=hidden;rotatable=0;points=[[0,0.5],[1,0.5]];portConstraint=eastwest;" vertex="1" parent="GKD8LtRDJNYYGs-lHLcW-46">
                    <mxGeometry y="278" width="153" height="26" as="geometry"/>
                </mxCell>
                <mxCell id="WoRqKMGYMsKeR5RRJ1yA-1" value="+ safetyOff()" style="text;strokeColor=none;fillColor=none;align=left;verticalAlign=top;spacingLeft=4;spacingRight=4;overflow=hidden;rotatable=0;points=[[0,0.5],[1,0.5]];portConstraint=eastwest;" vertex="1" parent="GKD8LtRDJNYYGs-lHLcW-46">
                    <mxGeometry y="304" width="153" height="26" as="geometry"/>
                </mxCell>
                <mxCell id="WoRqKMGYMsKeR5RRJ1yA-2" value="+ load()" style="text;strokeColor=none;fillColor=none;align=left;verticalAlign=top;spacingLeft=4;spacingRight=4;overflow=hidden;rotatable=0;points=[[0,0.5],[1,0.5]];portConstraint=eastwest;" vertex="1" parent="GKD8LtRDJNYYGs-lHLcW-46">
                    <mxGeometry y="330" width="153" height="26" as="geometry"/>
                </mxCell>
                <mxCell id="WoRqKMGYMsKeR5RRJ1yA-3" value="+ unload()" style="text;strokeColor=none;fillColor=none;align=left;verticalAlign=top;spacingLeft=4;spacingRight=4;overflow=hidden;rotatable=0;points=[[0,0.5],[1,0.5]];portConstraint=eastwest;" vertex="1" parent="GKD8LtRDJNYYGs-lHLcW-46">
                    <mxGeometry y="356" width="153" height="26" as="geometry"/>
                </mxCell>
                <mxCell id="WoRqKMGYMsKeR5RRJ1yA-4" value="+ shoot()" style="text;strokeColor=none;fillColor=none;align=left;verticalAlign=top;spacingLeft=4;spacingRight=4;overflow=hidden;rotatable=0;points=[[0,0.5],[1,0.5]];portConstraint=eastwest;" vertex="1" parent="GKD8LtRDJNYYGs-lHLcW-46">
                    <mxGeometry y="382" width="153" height="26" as="geometry"/>
                </mxCell>
                <mxCell id="GKD8LtRDJNYYGs-lHLcW-54" value="«interface»&#10;State" style="swimlane;fontStyle=1;align=center;verticalAlign=top;childLayout=stackLayout;horizontal=1;startSize=39;horizontalStack=0;resizeParent=1;resizeParentMax=0;resizeLast=0;collapsible=1;marginBottom=0;" parent="GKD8LtRDJNYYGs-lHLcW-1" vertex="1">
                    <mxGeometry x="248" y="20" width="160" height="169" as="geometry">
                        <mxRectangle x="248" y="20" width="90" height="39" as="alternateBounds"/>
                    </mxGeometry>
                </mxCell>
                <mxCell id="GKD8LtRDJNYYGs-lHLcW-76" value="+ safetyOn()" style="text;strokeColor=none;fillColor=none;align=left;verticalAlign=top;spacingLeft=4;spacingRight=4;overflow=hidden;rotatable=0;points=[[0,0.5],[1,0.5]];portConstraint=eastwest;" parent="GKD8LtRDJNYYGs-lHLcW-54" vertex="1">
                    <mxGeometry y="39" width="160" height="26" as="geometry"/>
                </mxCell>
                <mxCell id="GKD8LtRDJNYYGs-lHLcW-77" value="+ safetyOff()" style="text;strokeColor=none;fillColor=none;align=left;verticalAlign=top;spacingLeft=4;spacingRight=4;overflow=hidden;rotatable=0;points=[[0,0.5],[1,0.5]];portConstraint=eastwest;" parent="GKD8LtRDJNYYGs-lHLcW-54" vertex="1">
                    <mxGeometry y="65" width="160" height="26" as="geometry"/>
                </mxCell>
                <mxCell id="GKD8LtRDJNYYGs-lHLcW-59" value="+ load()" style="text;strokeColor=none;fillColor=none;align=left;verticalAlign=top;spacingLeft=4;spacingRight=4;overflow=hidden;rotatable=0;points=[[0,0.5],[1,0.5]];portConstraint=eastwest;" parent="GKD8LtRDJNYYGs-lHLcW-54" vertex="1">
                    <mxGeometry y="91" width="160" height="26" as="geometry"/>
                </mxCell>
                <mxCell id="GKD8LtRDJNYYGs-lHLcW-60" value="+ unload()" style="text;strokeColor=none;fillColor=none;align=left;verticalAlign=top;spacingLeft=4;spacingRight=4;overflow=hidden;rotatable=0;points=[[0,0.5],[1,0.5]];portConstraint=eastwest;" parent="GKD8LtRDJNYYGs-lHLcW-54" vertex="1">
                    <mxGeometry y="117" width="160" height="26" as="geometry"/>
                </mxCell>
                <mxCell id="GKD8LtRDJNYYGs-lHLcW-61" value="+ shoot()" style="text;strokeColor=none;fillColor=none;align=left;verticalAlign=top;spacingLeft=4;spacingRight=4;overflow=hidden;rotatable=0;points=[[0,0.5],[1,0.5]];portConstraint=eastwest;" parent="GKD8LtRDJNYYGs-lHLcW-54" vertex="1">
                    <mxGeometry y="143" width="160" height="26" as="geometry"/>
                </mxCell>
                <mxCell id="GKD8LtRDJNYYGs-lHLcW-63" value="OnAndUnloaded" style="swimlane;fontStyle=1;align=center;verticalAlign=top;childLayout=stackLayout;horizontal=1;startSize=26;horizontalStack=0;resizeParent=1;resizeParentMax=0;resizeLast=0;collapsible=1;marginBottom=0;" parent="GKD8LtRDJNYYGs-lHLcW-1" vertex="1">
                    <mxGeometry x="466" y="20" width="160" height="138" as="geometry"/>
                </mxCell>
                <mxCell id="GKD8LtRDJNYYGs-lHLcW-64" value="- context: Gun" style="text;strokeColor=none;fillColor=none;align=left;verticalAlign=top;spacingLeft=4;spacingRight=4;overflow=hidden;rotatable=0;points=[[0,0.5],[1,0.5]];portConstraint=eastwest;" parent="GKD8LtRDJNYYGs-lHLcW-63" vertex="1">
                    <mxGeometry y="26" width="160" height="26" as="geometry"/>
                </mxCell>
                <mxCell id="GKD8LtRDJNYYGs-lHLcW-65" value="" style="line;strokeWidth=1;fillColor=none;align=left;verticalAlign=middle;spacingTop=-1;spacingLeft=3;spacingRight=3;rotatable=0;labelPosition=right;points=[];portConstraint=eastwest;" parent="GKD8LtRDJNYYGs-lHLcW-63" vertex="1">
                    <mxGeometry y="52" width="160" height="8" as="geometry"/>
                </mxCell>
                <mxCell id="GKD8LtRDJNYYGs-lHLcW-67" value="+ load()" style="text;strokeColor=none;fillColor=none;align=left;verticalAlign=top;spacingLeft=4;spacingRight=4;overflow=hidden;rotatable=0;points=[[0,0.5],[1,0.5]];portConstraint=eastwest;" parent="GKD8LtRDJNYYGs-lHLcW-63" vertex="1">
                    <mxGeometry y="60" width="160" height="26" as="geometry"/>
                </mxCell>
                <mxCell id="GKD8LtRDJNYYGs-lHLcW-80" value="+ safetyOff()" style="text;strokeColor=none;fillColor=none;align=left;verticalAlign=top;spacingLeft=4;spacingRight=4;overflow=hidden;rotatable=0;points=[[0,0.5],[1,0.5]];portConstraint=eastwest;" parent="GKD8LtRDJNYYGs-lHLcW-63" vertex="1">
                    <mxGeometry y="86" width="160" height="26" as="geometry"/>
                </mxCell>
                <mxCell id="GKD8LtRDJNYYGs-lHLcW-115" value="+ getStateName(): string" style="text;strokeColor=none;fillColor=none;align=left;verticalAlign=top;spacingLeft=4;spacingRight=4;overflow=hidden;rotatable=0;points=[[0,0.5],[1,0.5]];portConstraint=eastwest;" parent="GKD8LtRDJNYYGs-lHLcW-63" vertex="1">
                    <mxGeometry y="112" width="160" height="26" as="geometry"/>
                </mxCell>
                <mxCell id="GKD8LtRDJNYYGs-lHLcW-69" value="OffAndUnloaded" style="swimlane;fontStyle=1;align=center;verticalAlign=top;childLayout=stackLayout;horizontal=1;startSize=26;horizontalStack=0;resizeParent=1;resizeParentMax=0;resizeLast=0;collapsible=1;marginBottom=0;" parent="GKD8LtRDJNYYGs-lHLcW-1" vertex="1">
                    <mxGeometry x="642" y="74" width="160" height="138" as="geometry"/>
                </mxCell>
                <mxCell id="GKD8LtRDJNYYGs-lHLcW-70" value="- context: Gun" style="text;strokeColor=none;fillColor=none;align=left;verticalAlign=top;spacingLeft=4;spacingRight=4;overflow=hidden;rotatable=0;points=[[0,0.5],[1,0.5]];portConstraint=eastwest;" parent="GKD8LtRDJNYYGs-lHLcW-69" vertex="1">
                    <mxGeometry y="26" width="160" height="26" as="geometry"/>
                </mxCell>
                <mxCell id="GKD8LtRDJNYYGs-lHLcW-71" value="" style="line;strokeWidth=1;fillColor=none;align=left;verticalAlign=middle;spacingTop=-1;spacingLeft=3;spacingRight=3;rotatable=0;labelPosition=right;points=[];portConstraint=eastwest;" parent="GKD8LtRDJNYYGs-lHLcW-69" vertex="1">
                    <mxGeometry y="52" width="160" height="8" as="geometry"/>
                </mxCell>
                <mxCell id="GKD8LtRDJNYYGs-lHLcW-72" value="+ load()" style="text;strokeColor=none;fillColor=none;align=left;verticalAlign=top;spacingLeft=4;spacingRight=4;overflow=hidden;rotatable=0;points=[[0,0.5],[1,0.5]];portConstraint=eastwest;" parent="GKD8LtRDJNYYGs-lHLcW-69" vertex="1">
                    <mxGeometry y="60" width="160" height="26" as="geometry"/>
                </mxCell>
                <mxCell id="GKD8LtRDJNYYGs-lHLcW-81" value="+ safetyOn()" style="text;strokeColor=none;fillColor=none;align=left;verticalAlign=top;spacingLeft=4;spacingRight=4;overflow=hidden;rotatable=0;points=[[0,0.5],[1,0.5]];portConstraint=eastwest;" parent="GKD8LtRDJNYYGs-lHLcW-69" vertex="1">
                    <mxGeometry y="86" width="160" height="26" as="geometry"/>
                </mxCell>
                <mxCell id="GKD8LtRDJNYYGs-lHLcW-117" value="+ getStateName(): string" style="text;strokeColor=none;fillColor=none;align=left;verticalAlign=top;spacingLeft=4;spacingRight=4;overflow=hidden;rotatable=0;points=[[0,0.5],[1,0.5]];portConstraint=eastwest;" parent="GKD8LtRDJNYYGs-lHLcW-69" vertex="1">
                    <mxGeometry y="112" width="160" height="26" as="geometry"/>
                </mxCell>
                <mxCell id="GKD8LtRDJNYYGs-lHLcW-75" value="safetyOn()" style="text;html=1;resizable=0;autosize=1;align=center;verticalAlign=middle;points=[];fillColor=none;strokeColor=none;rounded=0;" parent="GKD8LtRDJNYYGs-lHLcW-1" vertex="1">
                    <mxGeometry x="334" y="608" width="66" height="18" as="geometry"/>
                </mxCell>
                <mxCell id="GKD8LtRDJNYYGs-lHLcW-78" value="safetyOff()" style="text;html=1;resizable=0;autosize=1;align=center;verticalAlign=middle;points=[];fillColor=none;strokeColor=none;rounded=0;" parent="GKD8LtRDJNYYGs-lHLcW-1" vertex="1">
                    <mxGeometry x="334" y="690.5" width="66" height="18" as="geometry"/>
                </mxCell>
                <mxCell id="GKD8LtRDJNYYGs-lHLcW-79" value="safetyOn()" style="text;html=1;resizable=0;autosize=1;align=center;verticalAlign=middle;points=[];fillColor=none;strokeColor=none;rounded=0;" parent="GKD8LtRDJNYYGs-lHLcW-1" vertex="1">
                    <mxGeometry x="334" y="737.5" width="66" height="18" as="geometry"/>
                </mxCell>
                <mxCell id="GKD8LtRDJNYYGs-lHLcW-82" value="OnAndLoaded" style="swimlane;fontStyle=1;align=center;verticalAlign=top;childLayout=stackLayout;horizontal=1;startSize=26;horizontalStack=0;resizeParent=1;resizeParentMax=0;resizeLast=0;collapsible=1;marginBottom=0;" parent="GKD8LtRDJNYYGs-lHLcW-1" vertex="1">
                    <mxGeometry x="466" y="178" width="160" height="138" as="geometry"/>
                </mxCell>
                <mxCell id="GKD8LtRDJNYYGs-lHLcW-83" value="- context: Gun" style="text;strokeColor=none;fillColor=none;align=left;verticalAlign=top;spacingLeft=4;spacingRight=4;overflow=hidden;rotatable=0;points=[[0,0.5],[1,0.5]];portConstraint=eastwest;" parent="GKD8LtRDJNYYGs-lHLcW-82" vertex="1">
                    <mxGeometry y="26" width="160" height="26" as="geometry"/>
                </mxCell>
                <mxCell id="GKD8LtRDJNYYGs-lHLcW-84" value="" style="line;strokeWidth=1;fillColor=none;align=left;verticalAlign=middle;spacingTop=-1;spacingLeft=3;spacingRight=3;rotatable=0;labelPosition=right;points=[];portConstraint=eastwest;" parent="GKD8LtRDJNYYGs-lHLcW-82" vertex="1">
                    <mxGeometry y="52" width="160" height="8" as="geometry"/>
                </mxCell>
                <mxCell id="GKD8LtRDJNYYGs-lHLcW-87" value="+ unload()" style="text;strokeColor=none;fillColor=none;align=left;verticalAlign=top;spacingLeft=4;spacingRight=4;overflow=hidden;rotatable=0;points=[[0,0.5],[1,0.5]];portConstraint=eastwest;" parent="GKD8LtRDJNYYGs-lHLcW-82" vertex="1">
                    <mxGeometry y="60" width="160" height="26" as="geometry"/>
                </mxCell>
                <mxCell id="GKD8LtRDJNYYGs-lHLcW-86" value="+ safetyOff()" style="text;strokeColor=none;fillColor=none;align=left;verticalAlign=top;spacingLeft=4;spacingRight=4;overflow=hidden;rotatable=0;points=[[0,0.5],[1,0.5]];portConstraint=eastwest;" parent="GKD8LtRDJNYYGs-lHLcW-82" vertex="1">
                    <mxGeometry y="86" width="160" height="26" as="geometry"/>
                </mxCell>
                <mxCell id="GKD8LtRDJNYYGs-lHLcW-116" value="+ getStateName(): string" style="text;strokeColor=none;fillColor=none;align=left;verticalAlign=top;spacingLeft=4;spacingRight=4;overflow=hidden;rotatable=0;points=[[0,0.5],[1,0.5]];portConstraint=eastwest;" parent="GKD8LtRDJNYYGs-lHLcW-82" vertex="1">
                    <mxGeometry y="112" width="160" height="26" as="geometry"/>
                </mxCell>
                <mxCell id="GKD8LtRDJNYYGs-lHLcW-88" value="OffAndLoaded" style="swimlane;fontStyle=1;align=center;verticalAlign=top;childLayout=stackLayout;horizontal=1;startSize=26;horizontalStack=0;resizeParent=1;resizeParentMax=0;resizeLast=0;collapsible=1;marginBottom=0;" parent="GKD8LtRDJNYYGs-lHLcW-1" vertex="1">
                    <mxGeometry x="642" y="232" width="160" height="164" as="geometry"/>
                </mxCell>
                <mxCell id="GKD8LtRDJNYYGs-lHLcW-89" value="- context: Gun" style="text;strokeColor=none;fillColor=none;align=left;verticalAlign=top;spacingLeft=4;spacingRight=4;overflow=hidden;rotatable=0;points=[[0,0.5],[1,0.5]];portConstraint=eastwest;" parent="GKD8LtRDJNYYGs-lHLcW-88" vertex="1">
                    <mxGeometry y="26" width="160" height="26" as="geometry"/>
                </mxCell>
                <mxCell id="GKD8LtRDJNYYGs-lHLcW-90" value="" style="line;strokeWidth=1;fillColor=none;align=left;verticalAlign=middle;spacingTop=-1;spacingLeft=3;spacingRight=3;rotatable=0;labelPosition=right;points=[];portConstraint=eastwest;" parent="GKD8LtRDJNYYGs-lHLcW-88" vertex="1">
                    <mxGeometry y="52" width="160" height="8" as="geometry"/>
                </mxCell>
                <mxCell id="GKD8LtRDJNYYGs-lHLcW-91" value="+ unload()" style="text;strokeColor=none;fillColor=none;align=left;verticalAlign=top;spacingLeft=4;spacingRight=4;overflow=hidden;rotatable=0;points=[[0,0.5],[1,0.5]];portConstraint=eastwest;" parent="GKD8LtRDJNYYGs-lHLcW-88" vertex="1">
                    <mxGeometry y="60" width="160" height="26" as="geometry"/>
                </mxCell>
                <mxCell id="GKD8LtRDJNYYGs-lHLcW-92" value="+ safetyOn()" style="text;strokeColor=none;fillColor=none;align=left;verticalAlign=top;spacingLeft=4;spacingRight=4;overflow=hidden;rotatable=0;points=[[0,0.5],[1,0.5]];portConstraint=eastwest;" parent="GKD8LtRDJNYYGs-lHLcW-88" vertex="1">
                    <mxGeometry y="86" width="160" height="26" as="geometry"/>
                </mxCell>
                <mxCell id="GKD8LtRDJNYYGs-lHLcW-98" value="+ shoot()" style="text;strokeColor=none;fillColor=none;align=left;verticalAlign=top;spacingLeft=4;spacingRight=4;overflow=hidden;rotatable=0;points=[[0,0.5],[1,0.5]];portConstraint=eastwest;" parent="GKD8LtRDJNYYGs-lHLcW-88" vertex="1">
                    <mxGeometry y="112" width="160" height="26" as="geometry"/>
                </mxCell>
                <mxCell id="GKD8LtRDJNYYGs-lHLcW-118" value="+ getStateName(): string" style="text;strokeColor=none;fillColor=none;align=left;verticalAlign=top;spacingLeft=4;spacingRight=4;overflow=hidden;rotatable=0;points=[[0,0.5],[1,0.5]];portConstraint=eastwest;" parent="GKD8LtRDJNYYGs-lHLcW-88" vertex="1">
                    <mxGeometry y="138" width="160" height="26" as="geometry"/>
                </mxCell>
                <mxCell id="GKD8LtRDJNYYGs-lHLcW-119" style="edgeStyle=orthogonalEdgeStyle;rounded=0;html=1;exitX=1;exitY=0.5;exitDx=0;exitDy=0;entryX=-0.002;entryY=0.091;entryDx=0;entryDy=0;entryPerimeter=0;endArrow=open;endFill=0;startArrow=diamondThin;startFill=0;" parent="GKD8LtRDJNYYGs-lHLcW-1" source="GKD8LtRDJNYYGs-lHLcW-47" target="GKD8LtRDJNYYGs-lHLcW-54" edge="1">
                    <mxGeometry relative="1" as="geometry"/>
                </mxCell>
                <mxCell id="GKD8LtRDJNYYGs-lHLcW-120" style="edgeStyle=orthogonalEdgeStyle;rounded=0;html=1;exitX=0;exitY=0.5;exitDx=0;exitDy=0;entryX=1;entryY=0.5;entryDx=0;entryDy=0;startArrow=none;startFill=0;endArrow=block;endFill=0;dashed=1;" parent="GKD8LtRDJNYYGs-lHLcW-1" source="GKD8LtRDJNYYGs-lHLcW-64" target="GKD8LtRDJNYYGs-lHLcW-76" edge="1">
                    <mxGeometry relative="1" as="geometry"/>
                </mxCell>
                <mxCell id="GKD8LtRDJNYYGs-lHLcW-121" style="edgeStyle=orthogonalEdgeStyle;rounded=0;html=1;exitX=0;exitY=0.5;exitDx=0;exitDy=0;entryX=1;entryY=0.5;entryDx=0;entryDy=0;startArrow=none;startFill=0;endArrow=block;endFill=0;dashed=1;" parent="GKD8LtRDJNYYGs-lHLcW-1" source="GKD8LtRDJNYYGs-lHLcW-81" target="GKD8LtRDJNYYGs-lHLcW-76" edge="1">
                    <mxGeometry relative="1" as="geometry">
                        <Array as="points">
                            <mxPoint x="437" y="173"/>
                            <mxPoint x="437" y="72"/>
                        </Array>
                    </mxGeometry>
                </mxCell>
                <mxCell id="GKD8LtRDJNYYGs-lHLcW-122" style="edgeStyle=orthogonalEdgeStyle;rounded=0;html=1;exitX=0;exitY=0.5;exitDx=0;exitDy=0;startArrow=none;startFill=0;endArrow=block;endFill=0;entryX=0.996;entryY=0.497;entryDx=0;entryDy=0;entryPerimeter=0;dashed=1;" parent="GKD8LtRDJNYYGs-lHLcW-1" source="GKD8LtRDJNYYGs-lHLcW-83" target="GKD8LtRDJNYYGs-lHLcW-76" edge="1">
                    <mxGeometry relative="1" as="geometry">
                        <mxPoint x="407.7317073170733" y="71.68292682926835" as="targetPoint"/>
                        <Array as="points">
                            <mxPoint x="437" y="217"/>
                            <mxPoint x="437" y="72"/>
                        </Array>
                    </mxGeometry>
                </mxCell>
                <mxCell id="GKD8LtRDJNYYGs-lHLcW-123" style="edgeStyle=orthogonalEdgeStyle;rounded=0;html=1;exitX=0;exitY=0.5;exitDx=0;exitDy=0;entryX=1;entryY=0.5;entryDx=0;entryDy=0;startArrow=none;startFill=0;endArrow=block;endFill=0;dashed=1;" parent="GKD8LtRDJNYYGs-lHLcW-1" source="GKD8LtRDJNYYGs-lHLcW-92" target="GKD8LtRDJNYYGs-lHLcW-76" edge="1">
                    <mxGeometry relative="1" as="geometry">
                        <Array as="points">
                            <mxPoint x="437" y="331"/>
                            <mxPoint x="437" y="72"/>
                        </Array>
                    </mxGeometry>
                </mxCell>
            </root>
        </mxGraphModel>
    </diagram>
</mxfile>